# xmcd
#
# Track frame offsets:
#	150
#	10070
#	22403
#	34020
#	48245
#	63511
#	74345
#	86536
#	98302
#	111660
#	124289
#	136752
#	149606
#	161162
#	178089
#
# Disc length: 2530 seconds
#
# Revision: 1
# Processed by: cddbd v1.5.2PL0 Copyright (c) Steve Scherf et al.
# Submitted via: audiograbber 1.83.01
#
DISCID=d609e00f
DTITLE=Zillertal Pur - 5 Jahre
DYEAR=2014
DGENRE=volkstümlich
TTITLE0=5 Jahre 
TTITLE1=Ja bei an Boarischen 
TTITLE2=Wer nix wagt kann nix verlieren 
TTITLE3=Hochzeitswalzer
TTITLE4=Anna Carina 
TTITLE5=Abraham und Bebraham 
TTITLE6=Mein Herz schlagt für die Jagerei 
TTITLE7=Di gib i nimma her 
TTITLE8=Eine Woche Paris 
TTITLE9=Da drinn im Zillertal 
TTITLE10=Mei Diandl i kimm wieda 
TTITLE11=Hans Kröll Boarischer 
TTITLE12=I schenk dir heut a Edelweis 
TTITLE13=Drunt in der grian Au 
TTITLE14=Brücknstadl Blues 
EXTD=
EXTT0=
EXTT1=
EXTT2=
EXTT3=
EXTT4=
EXTT5=
EXTT6=
EXTT7=
EXTT8=
EXTT9=
EXTT10=
EXTT11=
EXTT12=
EXTT13=
EXTT14=
PLAYORDER=
